<?xml version="1.0" encoding="UTF-8"?>
<svg id="Layer_1" data-name="Layer 1" xmlns="http://www.w3.org/2000/svg" viewBox="0 0 964 259.58">
  <defs>
    <style>
      .cls-1 {
        fill: #4f4f4f;
      }

      .cls-2 {
        fill: #353535;
      }
    </style>
  </defs>
  <g>
    <g>
      <path d="M118.45,130.63c.21-13.12,1.25-24.58,4.17-37.5,2.92-14.17,6.67-25.83,12.29-40,34.17-3.54,67.71-5.21,100.41-5.21s66.67.83,99.79,3.54l-6.04,28.75c-25.21-1.46-49.58-2.92-80.62-2.92-29.17,0-52.92,1.25-77.29,3.12-1.67,4.17-2.92,8.33-3.96,12.92-.83,3.96-1.04,7.5-1.46,11.67,51.67,3.54,104.79,2.08,156.87,11.46-.42,13.96-1.46,25.21-4.38,38.96-3.12,14.79-6.87,26.87-12.71,41.46-34.58,3.75-68.75,5.21-102.08,5.21s-66.46-.83-99.37-3.54l6.04-28.54c25.42,1.46,50.83,2.5,82.91,2.5,29.17,0,52.71-1.04,75.83-2.71,1.67-4.58,3.12-9.17,4.17-14.58,1.04-4.58,1.67-8.96,1.88-13.54-52.29-2.92-104.37-2.71-156.45-11.04Z"/>
      <path d="M581.78,200h-45.42l-84.79-116.66c-6.88-.42-13.75-.62-21.25-.62l-24.79,117.29h-45.42l27.71-130.83-21.04-15.62.83-3.54h30.83c27.92,0,54.37.62,87.08,2.5l63.33,89.37,19.58-91.87h45.21l-31.87,150Z"/>
      <path d="M633.45,200l27.92-131.46-20.62-14.17.83-3.75c24.58-.83,59.17-2.08,93.33-2.71h3.54c9.17,0,18.33-.21,27.29-.21,32.5,0,63.33.62,95.21,2.92l-6.67,31.25c-23.54-2.5-51.87-2.71-78.75-2.71-21.25,0-48.96.42-73.12,2.08l-8.12,38.33h105l-5.83,27.71h-105.21l-11.04,52.71h-43.75Z"/>
    </g>
    <g>
      <polygon class="cls-1" points="77 49.17 104 49.17 77 200.17 77 49.17"/>
      <rect class="cls-1" x="27" y="49.17" width="50" height="151"/>
      <polygon class="cls-1" points="27 200.17 0 200.17 27 49.17 27 200.17"/>
    </g>
    <g>
      <polygon class="cls-1" points="881 202.17 848 202.17 881 51.17 881 202.17"/>
      <rect class="cls-1" x="881" y="51.17" width="50" height="151" transform="translate(1812 253.33) rotate(180)"/>
      <polygon class="cls-1" points="931 51.17 964 51.17 931 202.17 931 51.17"/>
    </g>
  </g>
  <polygon class="cls-2" points="17.16 187.17 68 187.17 33 94.17 17.16 187.17"/>
  <polygon class="cls-2" points="87.75 62.65 36.91 62.65 71.91 155.65 87.75 62.65"/>
  <polygon class="cls-2" points="870.53 189.32 921.36 189.32 886.36 96.32 870.53 189.32"/>
  <polygon class="cls-2" points="941.12 64.8 890.28 64.8 925.28 157.8 941.12 64.8"/>
</svg>